<svg width="17" height="6" viewBox="0 0 17 6" fill="none" xmlns="http://www.w3.org/2000/svg">
<path d="M8.50047 2.58753C10.967 2.58764 13.3393 3.55505 15.1269 5.28982C15.2615 5.42375 15.4766 5.42206 15.6092 5.28603L16.896 3.96045C16.9631 3.89146 17.0006 3.798 17 3.70076C16.9994 3.60353 16.9609 3.51052 16.893 3.44234C12.2011 -1.14745 4.79908 -1.14745 0.107163 3.44234C0.0391973 3.51047 0.000634479 3.60345 7.75932e-06 3.70069C-0.00061896 3.79792 0.0367421 3.89141 0.103824 3.96045L1.39096 5.28603C1.52346 5.42226 1.73878 5.42396 1.87331 5.28982C3.66116 3.55494 6.03367 2.58752 8.50047 2.58753Z" fill="#DADADA"/>
</svg>
