<svg width="15" height="15" viewBox="0 0 15 15" fill="none" xmlns="http://www.w3.org/2000/svg">
<path d="M6.01385 0.964667C6.58718 -0.32154 8.41282 -0.321537 8.98615 0.96467L9.92731 3.07608C10.1638 3.60657 10.6651 3.97079 11.2427 4.03175L13.5416 4.27439C14.942 4.42219 15.5062 6.15848 14.4601 7.10121L12.7428 8.64877C12.3114 9.03759 12.1199 9.62691 12.2404 10.1951L12.72 12.4564C13.0122 13.834 11.5353 14.9071 10.3154 14.2035L8.31294 13.0485C7.80982 12.7584 7.19018 12.7584 6.68706 13.0485L4.68458 14.2035C3.46474 14.9071 1.98777 13.834 2.27995 12.4564L2.75959 10.1951C2.8801 9.6269 2.68862 9.03759 2.25717 8.64877L0.539927 7.1012C-0.50616 6.15848 0.0579956 4.42219 1.45842 4.27439L3.75733 4.03175C4.33492 3.97079 4.83623 3.60657 5.07269 3.07608L6.01385 0.964667Z" fill="#D6D3FF"/>
</svg>
